<svg width="32" height="32" viewBox="0 0 32 32" fill="none" xmlns="http://www.w3.org/2000/svg">
<circle cx="16" cy="16" r="16" fill="#473BF0"/>
<path d="M18.375 18.3438C18.3333 18.4375 18.2969 18.5365 18.2656 18.6406C18.2344 18.7448 18.2188 18.8333 18.2188 18.9062C18.2188 19.0312 18.2448 19.1146 18.2969 19.1562C18.3594 19.1979 18.4375 19.2188 18.5312 19.2188C18.6771 19.2188 18.8542 19.1458 19.0625 19C19.2708 18.8542 19.4896 18.6406 19.7188 18.3594L22.5781 14.8281L22.9688 15.1406L19.5156 19.4062C19.2656 19.7188 19.0312 19.9792 18.8125 20.1875C18.5938 20.3958 18.3854 20.5625 18.1875 20.6875C18 20.8021 17.8073 20.8854 17.6094 20.9375C17.4219 20.9896 17.2292 21.0156 17.0312 21.0156C16.7188 21.0156 16.4583 20.9271 16.25 20.75C16.0417 20.5625 15.9375 20.3281 15.9375 20.0469C15.9375 19.7344 15.9948 19.4115 16.1094 19.0781C16.2344 18.7448 16.4115 18.3281 16.6406 17.8281C16.724 17.651 16.8229 17.4219 16.9375 17.1406C17.0625 16.849 17.1927 16.5469 17.3281 16.2344C17.4635 15.9115 17.599 15.5885 17.7344 15.2656C17.8698 14.9427 17.9896 14.651 18.0938 14.3906C18.1979 14.1198 18.2812 13.8958 18.3438 13.7188C18.4167 13.5417 18.4531 13.4375 18.4531 13.4062C18.4531 13.3021 18.4167 13.25 18.3438 13.25C18.25 13.25 18.151 13.3281 18.0469 13.4844C17.9844 13.5677 17.8594 13.7448 17.6719 14.0156C17.4844 14.2865 17.2552 14.6094 16.9844 14.9844C16.7135 15.3594 16.4219 15.7656 16.1094 16.2031C15.7969 16.6406 15.4844 17.0677 15.1719 17.4844C14.8594 17.901 14.5625 18.2812 14.2812 18.625C14 18.9688 13.7604 19.2396 13.5625 19.4375C13.0625 19.9375 12.6198 20.3333 12.2344 20.625C11.849 20.9062 11.4688 21.0469 11.0938 21.0469C10.9688 21.0469 10.8333 21.0208 10.6875 20.9688C10.5312 20.9167 10.3906 20.8281 10.2656 20.7031C10.1302 20.5677 10.0208 20.3854 9.9375 20.1562C9.85417 19.9167 9.8125 19.6146 9.8125 19.25C9.8125 18.7083 9.9375 18.1094 10.1875 17.4531C10.4271 16.7969 10.7604 16.1302 11.1875 15.4531C11.6146 14.7656 12.1198 14.0938 12.7031 13.4375C13.2865 12.7812 13.9167 12.1927 14.5938 11.6719C15.2812 11.1406 16 10.6979 16.75 10.3438C17.5 9.98958 18.2604 9.77604 19.0312 9.70312V9.98438C18.3958 10.1719 17.7865 10.4635 17.2031 10.8594C16.6198 11.2448 16.0729 11.6927 15.5625 12.2031C15.0521 12.7135 14.5885 13.2604 14.1719 13.8438C13.7552 14.4167 13.3958 14.9844 13.0938 15.5469C12.7917 16.1094 12.5625 16.6458 12.4062 17.1562C12.2396 17.6562 12.1562 18.0781 12.1562 18.4219C12.1562 18.6094 12.1875 18.7656 12.25 18.8906C12.3021 19.0156 12.3802 19.0781 12.4844 19.0781C12.599 19.0781 12.7708 18.9844 13 18.7969C13.2188 18.6094 13.474 18.3594 13.7656 18.0469C14.0573 17.724 14.375 17.3594 14.7188 16.9531C15.0625 16.5365 15.4115 16.1042 15.7656 15.6562C16.1198 15.2083 16.4688 14.7552 16.8125 14.2969C17.1667 13.8385 17.4948 13.4062 17.7969 13C18.2552 12.375 18.6354 11.8594 18.9375 11.4531C19.2396 11.0469 19.5 10.724 19.7188 10.4844C19.9375 10.2344 20.1354 10.0625 20.3125 9.96875C20.4896 9.875 20.6823 9.82812 20.8906 9.82812C21.1094 9.82812 21.2604 9.88542 21.3438 10C21.4271 10.1146 21.4688 10.2552 21.4688 10.4219C21.4688 10.5573 21.4479 10.6979 21.4062 10.8438C21.375 10.9896 21.3333 11.1198 21.2812 11.2344C21.2396 11.3281 21.1458 11.5521 21 11.9062C20.8646 12.25 20.6979 12.6667 20.5 13.1562C20.3021 13.6354 20.0885 14.151 19.8594 14.7031C19.6406 15.2552 19.4271 15.7812 19.2188 16.2812C19.0208 16.7708 18.8438 17.2083 18.6875 17.5938C18.5312 17.9688 18.4271 18.2188 18.375 18.3438Z" fill="white"/>
</svg>
