<svg width="32" height="32" viewBox="0 0 32 32" fill="none" xmlns="http://www.w3.org/2000/svg">
<circle cx="16" cy="16" r="16" fill="#34B3F2"/>
<path d="M15.2231 21H12.4028L12.4214 19.5435H15.2231C16.188 19.5435 16.992 19.3424 17.6353 18.9404C18.2785 18.5322 18.7609 17.9632 19.0825 17.2334C19.4103 16.4974 19.5742 15.6377 19.5742 14.6543V13.8286C19.5742 13.0555 19.4814 12.369 19.2959 11.769C19.1104 11.1629 18.8382 10.6527 18.4795 10.2383C18.1208 9.81771 17.6816 9.49919 17.1621 9.28271C16.6488 9.06624 16.0581 8.95801 15.3901 8.95801H12.3472V7.49219H15.3901C16.2746 7.49219 17.0817 7.64062 17.8115 7.9375C18.5413 8.22819 19.1691 8.65186 19.6948 9.2085C20.2267 9.75895 20.6349 10.4269 20.9194 11.2124C21.2039 11.9917 21.3462 12.87 21.3462 13.8472V14.6543C21.3462 15.6315 21.2039 16.5129 20.9194 17.2983C20.6349 18.0776 20.2236 18.7425 19.6855 19.293C19.1536 19.8434 18.5104 20.2671 17.7559 20.564C17.0075 20.8547 16.1632 21 15.2231 21ZM13.3584 7.49219V21H11.5679V7.49219H13.3584Z" fill="white"/>
</svg>
