<svg width="39" height="39" viewBox="0 0 39 39" fill="none" xmlns="http://www.w3.org/2000/svg">
<circle cx="19.5" cy="19.5" r="19.5" fill="#68D585"/>
<path d="M19.8572 28.1429C20.9176 28.1405 21.8224 27.2357 22 26H17.7143C17.8919 27.2357 18.7967 28.1405 19.8572 28.1429Z" fill="#2D2D2D"/>
<path d="M26.9302 24.7066C26.9122 24.6821 25.125 22.2088 25.125 20.1575V16.4945C25.125 13.46 22.6066 11 19.5 11C16.3934 11 13.875 13.46 13.875 16.4945V20.1575C13.875 22.2088 12.0878 24.6821 12.0698 24.7066C11.9882 24.8183 11.9773 24.9651 12.0416 25.0871C12.1059 25.2091 12.2346 25.2857 12.375 25.2857H26.625C26.7654 25.2857 26.8941 25.2091 26.9584 25.0871C27.0227 24.9651 27.0118 24.8183 26.9302 24.7066Z" fill="#2D2D2D"/>
</svg>
